<svg width="17" height="15" viewBox="0 0 17 15" fill="none" xmlns="http://www.w3.org/2000/svg">
<path d="M14.0625 13.6875C14.0625 13.91 13.9965 14.1275 13.8729 14.3125C13.7493 14.4975 13.5736 14.6417 13.368 14.7269C13.1625 14.812 12.9363 14.8343 12.718 14.7909C12.4998 14.7475 12.2993 14.6403 12.142 14.483C11.9847 14.3257 11.8775 14.1252 11.8341 13.907C11.7907 13.6887 11.813 13.4625 11.8981 13.257C11.9833 13.0514 12.1275 12.8757 12.3125 12.7521C12.4975 12.6285 12.715 12.5625 12.9375 12.5625C13.2359 12.5625 13.522 12.681 13.733 12.892C13.944 13.103 14.0625 13.3891 14.0625 13.6875ZM5.625 12.5625C5.4025 12.5625 5.18499 12.6285 4.99998 12.7521C4.81498 12.8757 4.67078 13.0514 4.58564 13.257C4.50049 13.4625 4.47821 13.6887 4.52162 13.907C4.56502 14.1252 4.67217 14.3257 4.8295 14.483C4.98684 14.6403 5.18729 14.7475 5.40552 14.7909C5.62375 14.8343 5.84995 14.812 6.05552 14.7269C6.26109 14.6417 6.43679 14.4975 6.5604 14.3125C6.68402 14.1275 6.75 13.91 6.75 13.6875C6.75 13.3891 6.63147 13.103 6.4205 12.892C6.20952 12.681 5.92337 12.5625 5.625 12.5625ZM16.0383 3.225C15.9855 3.15554 15.9175 3.09913 15.8395 3.06012C15.7615 3.02111 15.6755 3.00054 15.5883 3H3.39609L2.82656 1.00312C2.75827 0.768525 2.61591 0.562318 2.42074 0.41531C2.22558 0.268302 1.98809 0.188386 1.74375 0.1875H0.5625C0.413316 0.1875 0.270242 0.246763 0.164752 0.352252C0.0592632 0.457742 0 0.600816 0 0.75C0 0.899184 0.0592632 1.04226 0.164752 1.14775C0.270242 1.25324 0.413316 1.3125 0.5625 1.3125H1.74375L2.43281 3.71016V3.72422L4.28906 10.2141C4.39099 10.5663 4.6044 10.8759 4.89727 11.0965C5.19013 11.3171 5.54663 11.4367 5.91328 11.4375H12.6492C13.0159 11.4367 13.3724 11.3171 13.6652 11.0965C13.9581 10.8759 14.1715 10.5663 14.2734 10.2141L16.1297 3.71719C16.1535 3.63366 16.1576 3.54576 16.1418 3.46037C16.1259 3.37497 16.0905 3.29441 16.0383 3.225Z" fill="#51267d"/>
</svg>
